<svg xmlns="http://www.w3.org/2000/svg" xmlns:oryx="http://oryx-editor.org" id="_ADD4AD28-9974-4EC6-9A3F-0A97272ACBAA" width="1028.0000610351562" height="305.125" xmlns:xlink="http://www.w3.org/1999/xlink" xmlns:svg="http://www.w3.org/2000/svg"><defs><marker id="_DF019EDA-D6ED-4335-ABEE-F4B359E9A659start" refX="1" refY="5" markerUnits="userSpaceOnUse" markerWidth="17" markerHeight="11" orient="auto" fill="#000000" stroke="#000000"> 	  		<path id="_DF019EDA-D6ED-4335-ABEE-F4B359E9A659conditional" d="M 0 5 L 8 0 L 16 5 L 8 10 L 0 5" fill="white" stroke="#000000" stroke-width="1" display="none"/> 			<path id="_DF019EDA-D6ED-4335-ABEE-F4B359E9A659default" d="M 5 0 L 11 10" fill="white" stroke="#000000" stroke-width="1" display="none"/> 	  	</marker><marker id="_DF019EDA-D6ED-4335-ABEE-F4B359E9A659end" refX="15" refY="6" markerUnits="userSpaceOnUse" markerWidth="15" markerHeight="12" orient="auto" fill="#000000" stroke="#000000"> 	  		<path id="_DF019EDA-D6ED-4335-ABEE-F4B359E9A659frame2" d="M 0 1 L 15 6 L 0 11z" fill="#000000" stroke="#000000" stroke-linejoin="round" stroke-width="2"/> 	  	</marker><marker id="_E5D9BF79-C567-4060-A16D-68BAB078A904start" refX="1" refY="5" markerUnits="userSpaceOnUse" markerWidth="17" markerHeight="11" orient="auto" fill="#000000" stroke="#000000"> 	  		<path id="_E5D9BF79-C567-4060-A16D-68BAB078A904conditional" d="M 0 5 L 8 0 L 16 5 L 8 10 L 0 5" fill="white" stroke="#000000" stroke-width="1" display="none"/> 			<path id="_E5D9BF79-C567-4060-A16D-68BAB078A904default" d="M 5 0 L 11 10" fill="white" stroke="#000000" stroke-width="1" display="none"/> 	  	</marker><marker id="_E5D9BF79-C567-4060-A16D-68BAB078A904end" refX="15" refY="6" markerUnits="userSpaceOnUse" markerWidth="15" markerHeight="12" orient="auto" fill="#000000" stroke="#000000"> 	  		<path id="_E5D9BF79-C567-4060-A16D-68BAB078A904frame2" d="M 0 1 L 15 6 L 0 11z" fill="#000000" stroke="#000000" stroke-linejoin="round" stroke-width="2"/> 	  	</marker><marker id="_71B141C0-B9E1-49A6-B207-281E0F7E0C06start" refX="1" refY="5" markerUnits="userSpaceOnUse" markerWidth="17" markerHeight="11" orient="auto" fill="#000000" stroke="#000000"> 	  		<path id="_71B141C0-B9E1-49A6-B207-281E0F7E0C06conditional" d="M 0 5 L 8 0 L 16 5 L 8 10 L 0 5" fill="white" stroke="#000000" stroke-width="1" display="none"/> 			<path id="_71B141C0-B9E1-49A6-B207-281E0F7E0C06default" d="M 5 0 L 11 10" fill="white" stroke="#000000" stroke-width="1" display="none"/> 	  	</marker><marker id="_71B141C0-B9E1-49A6-B207-281E0F7E0C06end" refX="15" refY="6" markerUnits="userSpaceOnUse" markerWidth="15" markerHeight="12" orient="auto" fill="#000000" stroke="#000000"> 	  		<path id="_71B141C0-B9E1-49A6-B207-281E0F7E0C06frame2" d="M 0 1 L 15 6 L 0 11z" fill="#000000" stroke="#000000" stroke-linejoin="round" stroke-width="2"/> 	  	</marker><marker id="_44722205-14EB-4AB2-B64F-9534EA60C34Bstart" refX="1" refY="5" markerUnits="userSpaceOnUse" markerWidth="17" markerHeight="11" orient="auto" fill="#000000" stroke="#000000"> 	  		<path id="_44722205-14EB-4AB2-B64F-9534EA60C34Bconditional" d="M 0 5 L 8 0 L 16 5 L 8 10 L 0 5" fill="white" stroke="#000000" stroke-width="1" display="none"/> 			<path id="_44722205-14EB-4AB2-B64F-9534EA60C34Bdefault" d="M 5 0 L 11 10" fill="white" stroke="#000000" stroke-width="1" display="none"/> 	  	</marker><marker id="_44722205-14EB-4AB2-B64F-9534EA60C34Bend" refX="15" refY="6" markerUnits="userSpaceOnUse" markerWidth="15" markerHeight="12" orient="auto" fill="#000000" stroke="#000000"> 	  		<path id="_44722205-14EB-4AB2-B64F-9534EA60C34Bframe2" d="M 0 1 L 15 6 L 0 11z" fill="#000000" stroke="#000000" stroke-linejoin="round" stroke-width="2"/> 	  	</marker></defs><g stroke="none" font-family="Verdana, sans-serif" font-size-adjust="none" font-style="normal" font-variant="normal" font-weight="normal" line-heigth="normal" font-size="12"><g class="stencils" transform="translate(15, 16.125)"><g class="me"/><g class="children"><g id="_8FA5F467-5C0B-492A-9268-4BF996591634" bpmn2nodeid="processStartEvent"><g class="stencils" transform="translate(240, 205)"><g class="me"><g pointer-events="fill" id="_8FA5F467-5C0B-492A-9268-4BF996591634">        <defs id="_8FA5F467-5C0B-492A-9268-4BF996591634__8FA5F467-5C0B-492A-9268-4BF996591634_5"> 		<radialGradient id="_8FA5F467-5C0B-492A-9268-4BF996591634background" cx="10%" cy="10%" r="100%" fx="10%" fy="10%"> 			<stop offset="0%" stop-color="#ffffff" stop-opacity="1" id="_8FA5F467-5C0B-492A-9268-4BF996591634__8FA5F467-5C0B-492A-9268-4BF996591634_6"/> 			<stop id="_8FA5F467-5C0B-492A-9268-4BF996591634fill_el" offset="100%" stop-color="#9acd32" stop-opacity="1"/> 		</radialGradient> 	</defs> 	     <circle id="_8FA5F467-5C0B-492A-9268-4BF996591634bg_frame" cx="15" cy="15" r="15" stroke="#000000" fill="url(#_8FA5F467-5C0B-492A-9268-4BF996591634background) white" stroke-width="1" style="stroke-dasharray: 5.5, 3"/>      <circle id="_8FA5F467-5C0B-492A-9268-4BF996591634frame" cx="15" cy="15" r="15" stroke="#000000" fill="none" stroke-width="1" display="inherit"/>  	<text font-size="11" id="_8FA5F467-5C0B-492A-9268-4BF996591634text_name" x="15" y="32" oryx:align="top center" stroke="black" stroke-width="0pt" letter-spacing="-0.01px" fill="#000000" text-anchor="middle" transform="rotate(0 15 32)" visibility="inherit" oryx:fontSize="11"/>   </g></g><g class="children" style="overflow:hidden"/><g class="edge"/></g><g class="controls"><g class="dockers"/><g class="magnets" transform="translate(240, 205)"><g pointer-events="all" display="none" transform="translate(7, 7)"><circle cx="8" cy="8" r="4" stroke="none" fill="red" fill-opacity="0.3"/></g></g></g></g><g id="_E248FA35-B95A-4CDE-9C31-33BE69E89204" bpmn2nodeid="_92262C5B-7741-417E-A418-65607DA46A86"><g class="stencils" transform="translate(375, 180)"><g class="me"><g pointer-events="fill" oryx:minimumSize="50 40" id="_E248FA35-B95A-4CDE-9C31-33BE69E89204">   	<defs id="_E248FA35-B95A-4CDE-9C31-33BE69E89204__E248FA35-B95A-4CDE-9C31-33BE69E89204_17"> 		<radialGradient id="_E248FA35-B95A-4CDE-9C31-33BE69E89204background" cx="10%" cy="10%" r="100%" fx="10%" fy="10%"> 			<stop offset="0%" stop-color="#ffffff" stop-opacity="1" id="_E248FA35-B95A-4CDE-9C31-33BE69E89204__E248FA35-B95A-4CDE-9C31-33BE69E89204_18"/> 			<stop id="_E248FA35-B95A-4CDE-9C31-33BE69E89204fill_el" offset="100%" stop-color="#fafad2" stop-opacity="1"/> 		</radialGradient> 		<radialGradient id="_E248FA35-B95A-4CDE-9C31-33BE69E89204borderbackground" cx="10%" cy="10%" r="100%" fx="10%" fy="10%"> 			<stop offset="0%" stop-color="#ffffff" stop-opacity="1" id="_E248FA35-B95A-4CDE-9C31-33BE69E89204__E248FA35-B95A-4CDE-9C31-33BE69E89204_19"/> 			<stop id="_E248FA35-B95A-4CDE-9C31-33BE69E89204fill_border" offset="100%" stop-color="#000000" stop-opacity="1" stroke="#000000"/> 		</radialGradient> 	</defs> 	 	<rect id="_E248FA35-B95A-4CDE-9C31-33BE69E89204text_frame" oryx:anchors="bottom top right left" x="1" y="1" width="94" height="79" rx="10" ry="10" stroke="none" stroke-width="0" fill="none"/> 	<rect id="_E248FA35-B95A-4CDE-9C31-33BE69E89204bg_frame" oryx:resize="vertical horizontal" x="0" y="0" width="100" height="80" rx="10" ry="10" stroke="#000000" stroke-width="1" fill="url(#_E248FA35-B95A-4CDE-9C31-33BE69E89204background) #ffffcc"/> 		<text font-size="12" id="_E248FA35-B95A-4CDE-9C31-33BE69E89204text_name" x="50" y="40" oryx:align="middle center" oryx:fittoelem="text_frame" stroke="black" text-anchor="middle" stroke-width="0pt" letter-spacing="-0.01px" fill="#000000" transform="rotate(0 50 40)" visibility="inherit" oryx:fontSize="12"><tspan x="50" y="40" dy="5">digite numeros</tspan></text>     <g id="_E248FA35-B95A-4CDE-9C31-33BE69E89204manualTask" transform="scale(0.7,0.7) translate(8,8)" display="none">     	<path oryx:anchors="top left" id="_E248FA35-B95A-4CDE-9C31-33BE69E89204frame" style="opacity:1;fill:none;fill-opacity:1;stroke-width:1" d="M0.5,3.751l4.083-3.25c0,0,11.166,0.083,12.083,0.083s-2.417,2.917-1.5,2.917     s11.667,0,12.584,0c1.166,1.708-0.168,3.167-0.834,3.667s0.875,1.917-1,4.417c-0.75,0.25,0.75,1.875-1.333,3.333     c-1.167,0.583,0.583,1.542-1.25,2.833c-1.167,0-20.833,0.083-20.833,0.083l-2-1.333V3.751z" stroke="#000000"/> 		<path id="_E248FA35-B95A-4CDE-9C31-33BE69E89204frame2" oryx:anchors="top left" style="opacity:1;fill:none;stroke-width:2" d="M 13.5 7 L 27 7" stroke="#000000"/> 		<path id="_E248FA35-B95A-4CDE-9C31-33BE69E89204frame3" oryx:anchors="top left" style="opacity:1;fill:none;stroke-width:2" d="M 13.5 11 L 26 11" stroke="#000000"/> 		<path id="_E248FA35-B95A-4CDE-9C31-33BE69E89204frame4" oryx:anchors="top left" style="opacity:1;fill:none;stroke-width:1.5" d="M 14 14.5 L 25 14.5" stroke="#000000"/> 		<path id="_E248FA35-B95A-4CDE-9C31-33BE69E89204frame5" oryx:anchors="top left" style="opacity:1;fill:none;stroke-width:1.5" d="M 8.2 3.1 L 15 3.1" stroke="#000000"/> 	</g> 	 	<g id="_E248FA35-B95A-4CDE-9C31-33BE69E89204businessRuleTask" transform="scale(0.7,0.7) translate(8,8)" display="none"> 		<rect id="_E248FA35-B95A-4CDE-9C31-33BE69E89204frame6" oryx:anchors="top left" x="0" y="0" width="22" height="4" style="opacity:1;fill:#B3B1B3;fill-opacity:1;" stroke="#000000"/> 		<rect id="_E248FA35-B95A-4CDE-9C31-33BE69E89204frame7" oryx:anchors="top left" x="0" y="4" style="opacity:1;fill:none;" width="22" height="12" stroke="#000000"/> 		<path id="_E248FA35-B95A-4CDE-9C31-33BE69E89204frame8" oryx:anchors="top left" style="opacity:1;fill:none;" d="M 0 10 L 22 10" stroke="#000000"/> 		<path id="_E248FA35-B95A-4CDE-9C31-33BE69E89204frame9" oryx:anchors="top left" style="opacity:1; fill:none;" d="M 7 4 L 7 16" stroke="#000000"/> 	</g> 	 	<g id="_E248FA35-B95A-4CDE-9C31-33BE69E89204scriptTask" transform="scale(0.7,0.7) translate(8,8)" display="none"> 		<path oryx:anchors="top left" id="_E248FA35-B95A-4CDE-9C31-33BE69E89204frame10" style="opacity:1;fill:none;" stroke="#000000" d="M6.402,0.5h14.5c0,0-5.833,2.833-5.833,5.583s4.417,6,4.417,9.167    s-4.167,5.083-4.167,5.083H0.235c0,0,5-2.667,5-5s-4.583-6.75-4.583-9.25S6.402,0.5,6.402,0.5z"/> 		<path oryx:anchors="top left" id="_E248FA35-B95A-4CDE-9C31-33BE69E89204frame11" style="opacity:1;fill:none;stroke-width:1.5" d="M 3.5 4.5 L 13.5 4.5" stroke="#000000"/> 		<path oryx:anchors="top left" id="_E248FA35-B95A-4CDE-9C31-33BE69E89204frame12" style="opacity:1;fill:none;stroke-width:1.5" d="M 3.8 8.5 L 13.8 8.5" stroke="#000000"/> 		<path oryx:anchors="top left" id="_E248FA35-B95A-4CDE-9C31-33BE69E89204frame13" style="opacity:1;fill:none;stroke-width:1.5" d="M 6.3 12.5 L 16.3 12.5" stroke="#000000"/> 		<path oryx:anchors="top left" id="_E248FA35-B95A-4CDE-9C31-33BE69E89204frame14" style="opacity:1;fill:none;stroke-width:1.5" d="M 6.5 16.5 L 16.5 16.5" stroke="#000000"/> 	</g> 	 	<g id="_E248FA35-B95A-4CDE-9C31-33BE69E89204userTask" transform="scale(0.7,0.7) translate(8,8)" display="inherit"> 		<path id="_E248FA35-B95A-4CDE-9C31-33BE69E89204frame15" oryx:anchors="top left" style="opacity:1;fill:#F4F6F7" stroke="#000000" d="M0.585,24.167h24.083v-7.833c0,0-2.333-3.917-7.083-5.167h-9.25    c-4.417,1.333-7.833,5.75-7.833,5.75L0.585,24.167z"/> 		<path id="_E248FA35-B95A-4CDE-9C31-33BE69E89204frame16" oryx:anchors="top left" style="opacity:1;fill:none" d="M 6 20 L 6 24" stroke="#000000"/> 		<path id="_E248FA35-B95A-4CDE-9C31-33BE69E89204frame17" oryx:anchors="top left" style="opacity:1;fill:none" d="M 20 20 L 20 24" stroke="#000000"/> 		<circle id="_E248FA35-B95A-4CDE-9C31-33BE69E89204frame18" oryx:anchors="top left" fill="black" cx="13.002" cy="5.916" r="5.417" stroke="#000000"/> 		<path id="_E248FA35-B95A-4CDE-9C31-33BE69E89204frame19" oryx:anchors="top left" style="opacity:1;fill:#F0EFF0;" stroke="#000000" d="M8.043,7.083c0,0,2.814-2.426,5.376-1.807s4.624-0.693,4.624-0.693    c0.25,1.688,0.042,3.75-1.458,5.584c0,0,1.083,0.75,1.083,1.5s0.125,1.875-1,3s-5.5,1.25-6.75,0S8.668,12.834,8.668,12    s0.583-1.25,1.25-1.917C8.835,9.5,7.419,7.708,8.043,7.083z"/> 	</g> 	 	<g id="_E248FA35-B95A-4CDE-9C31-33BE69E89204serviceTask" transform="scale(0.7,0.7) translate(8,8)" display="none"> 		<polygon oryx:anchors="top left" id="_E248FA35-B95A-4CDE-9C31-33BE69E89204frame20" style="opacity:1;fill:#ffffff" stroke="#000000" points="15.392,5.064 17.954,2.502 20.347,4.895 17.786,7.455     18.729,9.732 22.353,9.732 22.353,13.115 18.731,13.115 17.788,15.392 20.351,17.955 17.958,20.347 15.397,17.786 13.12,18.729     13.12,22.353 9.737,22.353 9.737,18.731 7.46,17.788 4.897,20.35 2.506,17.958 5.066,15.397 4.124,13.12 0.5,13.12 0.5,9.737     4.121,9.737 5.065,7.461 2.503,4.898 4.895,2.506 7.455,5.066 9.732,4.125 9.732,0.5 13.116,0.5 13.116,4.121 "/> 		<circle oryx:anchors="top left" id="_E248FA35-B95A-4CDE-9C31-33BE69E89204frame21" style="opacity:1;fill:none" stroke="#000000" cx="11.427" cy="11.426" r="3.714"/> 		<polygon oryx:anchors="top left" id="_E248FA35-B95A-4CDE-9C31-33BE69E89204frame22" style="opacity:1;fill:#ffffff" stroke="#000000" points="21.392,11.064 23.954,8.502 26.347,10.895 23.786,13.455     24.729,15.732 28.353,15.732 28.353,19.115 24.731,19.115 23.788,21.392 26.351,23.955 23.958,26.347 21.397,23.786 19.12,24.729     19.12,28.353 15.737,28.353 15.737,24.731 13.46,23.788 10.897,26.35 8.506,23.958 11.066,21.397 10.124,19.12 6.5,19.12     6.5,15.737 10.121,15.737 11.065,13.461 8.503,10.898 10.895,8.506 13.455,11.066 15.732,10.125 15.732,6.5 19.116,6.5     19.116,10.121 "/> 		<circle oryx:anchors="top left" id="_E248FA35-B95A-4CDE-9C31-33BE69E89204frame23" style="opacity:1;fill:none;" stroke="#000000" cx="17.427" cy="17.426" r="3.714"/> 	</g> 	 	<g id="_E248FA35-B95A-4CDE-9C31-33BE69E89204sendTask" display="none"> 		<path id="_E248FA35-B95A-4CDE-9C31-33BE69E89204stframe24" oryx:anchors="left top" stroke="#FFFFFF" fill="black" stroke-width="1" d="M8,11 L8,21 L24,21 L24,11 L16,17z"/> 		<path id="_E248FA35-B95A-4CDE-9C31-33BE69E89204stframe25" oryx:anchors="left top" stroke="#FFFFFF" fill="black" stroke-width="1" d="M7,10 L16,17 L25 10z"/> 	</g> 	 	<g id="_E248FA35-B95A-4CDE-9C31-33BE69E89204receiveTask" display="none"> 		<path id="_E248FA35-B95A-4CDE-9C31-33BE69E89204frame26" oryx:anchors="left top" stroke="#000000" fill="none" stroke-width="1" d="M8,11 L8,21 L24,21 L24,11z M8,11 L16,17 L24,11"/> 	</g> 	 	<g id="_E248FA35-B95A-4CDE-9C31-33BE69E89204none" display="inherit"/>  	<g id="_E248FA35-B95A-4CDE-9C31-33BE69E89204sequential" display="none">         <path oryx:anchors="bottom" fill="none" stroke="#000000" stroke-width="2" d="M46,76h10M46,72h10 M46,68h10" id="_E248FA35-B95A-4CDE-9C31-33BE69E89204__E248FA35-B95A-4CDE-9C31-33BE69E89204_20"/>     </g>   </g></g><g class="children" style="overflow:hidden"/><g class="edge"/></g><g class="controls"><g class="dockers"/><g class="magnets" transform="translate(375, 180)"><g pointer-events="all" display="none" transform="translate(-7, 12)"><circle cx="8" cy="8" r="4" stroke="none" fill="red" fill-opacity="0.3"/></g><g pointer-events="all" display="none" transform="translate(-7, 32)"><circle cx="8" cy="8" r="4" stroke="none" fill="red" fill-opacity="0.3"/></g><g pointer-events="all" display="none" transform="translate(-7, 52)"><circle cx="8" cy="8" r="4" stroke="none" fill="red" fill-opacity="0.3"/></g><g pointer-events="all" display="none" transform="translate(17, 71)"><circle cx="8" cy="8" r="4" stroke="none" fill="red" fill-opacity="0.3"/></g><g pointer-events="all" display="none" transform="translate(42, 71)"><circle cx="8" cy="8" r="4" stroke="none" fill="red" fill-opacity="0.3"/></g><g pointer-events="all" display="none" transform="translate(67, 71)"><circle cx="8" cy="8" r="4" stroke="none" fill="red" fill-opacity="0.3"/></g><g pointer-events="all" display="none" transform="translate(91, 12)"><circle cx="8" cy="8" r="4" stroke="none" fill="red" fill-opacity="0.3"/></g><g pointer-events="all" display="none" transform="translate(91, 32)"><circle cx="8" cy="8" r="4" stroke="none" fill="red" fill-opacity="0.3"/></g><g pointer-events="all" display="none" transform="translate(91, 52)"><circle cx="8" cy="8" r="4" stroke="none" fill="red" fill-opacity="0.3"/></g><g pointer-events="all" display="none" transform="translate(17, -7)"><circle cx="8" cy="8" r="4" stroke="none" fill="red" fill-opacity="0.3"/></g><g pointer-events="all" display="none" transform="translate(42, -7)"><circle cx="8" cy="8" r="4" stroke="none" fill="red" fill-opacity="0.3"/></g><g pointer-events="all" display="none" transform="translate(67, -7)"><circle cx="8" cy="8" r="4" stroke="none" fill="red" fill-opacity="0.3"/></g><g pointer-events="all" display="none" transform="translate(42, 32)"><circle cx="8" cy="8" r="4" stroke="none" fill="red" fill-opacity="0.3"/></g></g></g></g><g id="_6790B840-3BA6-4CF5-807B-F9502DA19634" bpmn2nodeid="_3B69CE23-50DB-4498-A038-F66FF7EB8D1B"><g class="stencils" transform="translate(570, 180)"><g class="me"><g pointer-events="fill" oryx:minimumSize="50 40" id="_6790B840-3BA6-4CF5-807B-F9502DA19634">   	<defs id="_6790B840-3BA6-4CF5-807B-F9502DA19634__6790B840-3BA6-4CF5-807B-F9502DA19634_17"> 		<radialGradient id="_6790B840-3BA6-4CF5-807B-F9502DA19634background" cx="10%" cy="10%" r="100%" fx="10%" fy="10%"> 			<stop offset="0%" stop-color="#ffffff" stop-opacity="1" id="_6790B840-3BA6-4CF5-807B-F9502DA19634__6790B840-3BA6-4CF5-807B-F9502DA19634_18"/> 			<stop id="_6790B840-3BA6-4CF5-807B-F9502DA19634fill_el" offset="100%" stop-color="#fafad2" stop-opacity="1"/> 		</radialGradient> 		<radialGradient id="_6790B840-3BA6-4CF5-807B-F9502DA19634borderbackground" cx="10%" cy="10%" r="100%" fx="10%" fy="10%"> 			<stop offset="0%" stop-color="#ffffff" stop-opacity="1" id="_6790B840-3BA6-4CF5-807B-F9502DA19634__6790B840-3BA6-4CF5-807B-F9502DA19634_19"/> 			<stop id="_6790B840-3BA6-4CF5-807B-F9502DA19634fill_border" offset="100%" stop-color="#000000" stop-opacity="1" stroke="#000000"/> 		</radialGradient> 	</defs> 	 	<rect id="_6790B840-3BA6-4CF5-807B-F9502DA19634text_frame" oryx:anchors="bottom top right left" x="1" y="1" width="94" height="79" rx="10" ry="10" stroke="none" stroke-width="0" fill="none"/> 	<rect id="_6790B840-3BA6-4CF5-807B-F9502DA19634bg_frame" oryx:resize="vertical horizontal" x="0" y="0" width="100" height="80" rx="10" ry="10" stroke="#000000" stroke-width="1" fill="url(#_6790B840-3BA6-4CF5-807B-F9502DA19634background) #ffffcc"/> 		<text font-size="12" id="_6790B840-3BA6-4CF5-807B-F9502DA19634text_name" x="50" y="40" oryx:align="middle center" oryx:fittoelem="text_frame" stroke="black" text-anchor="middle" stroke-width="0pt" letter-spacing="-0.01px" fill="#000000" transform="rotate(0 50 40)" visibility="inherit" oryx:fontSize="12"><tspan x="50" y="40" dy="5">calcular Suma</tspan></text>     <g id="_6790B840-3BA6-4CF5-807B-F9502DA19634manualTask" transform="scale(0.7,0.7) translate(8,8)" display="none">     	<path oryx:anchors="top left" id="_6790B840-3BA6-4CF5-807B-F9502DA19634frame" style="opacity:1;fill:none;fill-opacity:1;stroke-width:1" d="M0.5,3.751l4.083-3.25c0,0,11.166,0.083,12.083,0.083s-2.417,2.917-1.5,2.917     s11.667,0,12.584,0c1.166,1.708-0.168,3.167-0.834,3.667s0.875,1.917-1,4.417c-0.75,0.25,0.75,1.875-1.333,3.333     c-1.167,0.583,0.583,1.542-1.25,2.833c-1.167,0-20.833,0.083-20.833,0.083l-2-1.333V3.751z" stroke="#000000"/> 		<path id="_6790B840-3BA6-4CF5-807B-F9502DA19634frame2" oryx:anchors="top left" style="opacity:1;fill:none;stroke-width:2" d="M 13.5 7 L 27 7" stroke="#000000"/> 		<path id="_6790B840-3BA6-4CF5-807B-F9502DA19634frame3" oryx:anchors="top left" style="opacity:1;fill:none;stroke-width:2" d="M 13.5 11 L 26 11" stroke="#000000"/> 		<path id="_6790B840-3BA6-4CF5-807B-F9502DA19634frame4" oryx:anchors="top left" style="opacity:1;fill:none;stroke-width:1.5" d="M 14 14.5 L 25 14.5" stroke="#000000"/> 		<path id="_6790B840-3BA6-4CF5-807B-F9502DA19634frame5" oryx:anchors="top left" style="opacity:1;fill:none;stroke-width:1.5" d="M 8.2 3.1 L 15 3.1" stroke="#000000"/> 	</g> 	 	<g id="_6790B840-3BA6-4CF5-807B-F9502DA19634businessRuleTask" transform="scale(0.7,0.7) translate(8,8)" display="none"> 		<rect id="_6790B840-3BA6-4CF5-807B-F9502DA19634frame6" oryx:anchors="top left" x="0" y="0" width="22" height="4" style="opacity:1;fill:#B3B1B3;fill-opacity:1;" stroke="#000000"/> 		<rect id="_6790B840-3BA6-4CF5-807B-F9502DA19634frame7" oryx:anchors="top left" x="0" y="4" style="opacity:1;fill:none;" width="22" height="12" stroke="#000000"/> 		<path id="_6790B840-3BA6-4CF5-807B-F9502DA19634frame8" oryx:anchors="top left" style="opacity:1;fill:none;" d="M 0 10 L 22 10" stroke="#000000"/> 		<path id="_6790B840-3BA6-4CF5-807B-F9502DA19634frame9" oryx:anchors="top left" style="opacity:1; fill:none;" d="M 7 4 L 7 16" stroke="#000000"/> 	</g> 	 	<g id="_6790B840-3BA6-4CF5-807B-F9502DA19634scriptTask" transform="scale(0.7,0.7) translate(8,8)" display="inherit"> 		<path oryx:anchors="top left" id="_6790B840-3BA6-4CF5-807B-F9502DA19634frame10" style="opacity:1;fill:none;" stroke="#000000" d="M6.402,0.5h14.5c0,0-5.833,2.833-5.833,5.583s4.417,6,4.417,9.167    s-4.167,5.083-4.167,5.083H0.235c0,0,5-2.667,5-5s-4.583-6.75-4.583-9.25S6.402,0.5,6.402,0.5z"/> 		<path oryx:anchors="top left" id="_6790B840-3BA6-4CF5-807B-F9502DA19634frame11" style="opacity:1;fill:none;stroke-width:1.5" d="M 3.5 4.5 L 13.5 4.5" stroke="#000000"/> 		<path oryx:anchors="top left" id="_6790B840-3BA6-4CF5-807B-F9502DA19634frame12" style="opacity:1;fill:none;stroke-width:1.5" d="M 3.8 8.5 L 13.8 8.5" stroke="#000000"/> 		<path oryx:anchors="top left" id="_6790B840-3BA6-4CF5-807B-F9502DA19634frame13" style="opacity:1;fill:none;stroke-width:1.5" d="M 6.3 12.5 L 16.3 12.5" stroke="#000000"/> 		<path oryx:anchors="top left" id="_6790B840-3BA6-4CF5-807B-F9502DA19634frame14" style="opacity:1;fill:none;stroke-width:1.5" d="M 6.5 16.5 L 16.5 16.5" stroke="#000000"/> 	</g> 	 	<g id="_6790B840-3BA6-4CF5-807B-F9502DA19634userTask" transform="scale(0.7,0.7) translate(8,8)" display="none"> 		<path id="_6790B840-3BA6-4CF5-807B-F9502DA19634frame15" oryx:anchors="top left" style="opacity:1;fill:#F4F6F7" stroke="#000000" d="M0.585,24.167h24.083v-7.833c0,0-2.333-3.917-7.083-5.167h-9.25    c-4.417,1.333-7.833,5.75-7.833,5.75L0.585,24.167z"/> 		<path id="_6790B840-3BA6-4CF5-807B-F9502DA19634frame16" oryx:anchors="top left" style="opacity:1;fill:none" d="M 6 20 L 6 24" stroke="#000000"/> 		<path id="_6790B840-3BA6-4CF5-807B-F9502DA19634frame17" oryx:anchors="top left" style="opacity:1;fill:none" d="M 20 20 L 20 24" stroke="#000000"/> 		<circle id="_6790B840-3BA6-4CF5-807B-F9502DA19634frame18" oryx:anchors="top left" fill="black" cx="13.002" cy="5.916" r="5.417" stroke="#000000"/> 		<path id="_6790B840-3BA6-4CF5-807B-F9502DA19634frame19" oryx:anchors="top left" style="opacity:1;fill:#F0EFF0;" stroke="#000000" d="M8.043,7.083c0,0,2.814-2.426,5.376-1.807s4.624-0.693,4.624-0.693    c0.25,1.688,0.042,3.75-1.458,5.584c0,0,1.083,0.75,1.083,1.5s0.125,1.875-1,3s-5.5,1.25-6.75,0S8.668,12.834,8.668,12    s0.583-1.25,1.25-1.917C8.835,9.5,7.419,7.708,8.043,7.083z"/> 	</g> 	 	<g id="_6790B840-3BA6-4CF5-807B-F9502DA19634serviceTask" transform="scale(0.7,0.7) translate(8,8)" display="none"> 		<polygon oryx:anchors="top left" id="_6790B840-3BA6-4CF5-807B-F9502DA19634frame20" style="opacity:1;fill:#ffffff" stroke="#000000" points="15.392,5.064 17.954,2.502 20.347,4.895 17.786,7.455     18.729,9.732 22.353,9.732 22.353,13.115 18.731,13.115 17.788,15.392 20.351,17.955 17.958,20.347 15.397,17.786 13.12,18.729     13.12,22.353 9.737,22.353 9.737,18.731 7.46,17.788 4.897,20.35 2.506,17.958 5.066,15.397 4.124,13.12 0.5,13.12 0.5,9.737     4.121,9.737 5.065,7.461 2.503,4.898 4.895,2.506 7.455,5.066 9.732,4.125 9.732,0.5 13.116,0.5 13.116,4.121 "/> 		<circle oryx:anchors="top left" id="_6790B840-3BA6-4CF5-807B-F9502DA19634frame21" style="opacity:1;fill:none" stroke="#000000" cx="11.427" cy="11.426" r="3.714"/> 		<polygon oryx:anchors="top left" id="_6790B840-3BA6-4CF5-807B-F9502DA19634frame22" style="opacity:1;fill:#ffffff" stroke="#000000" points="21.392,11.064 23.954,8.502 26.347,10.895 23.786,13.455     24.729,15.732 28.353,15.732 28.353,19.115 24.731,19.115 23.788,21.392 26.351,23.955 23.958,26.347 21.397,23.786 19.12,24.729     19.12,28.353 15.737,28.353 15.737,24.731 13.46,23.788 10.897,26.35 8.506,23.958 11.066,21.397 10.124,19.12 6.5,19.12     6.5,15.737 10.121,15.737 11.065,13.461 8.503,10.898 10.895,8.506 13.455,11.066 15.732,10.125 15.732,6.5 19.116,6.5     19.116,10.121 "/> 		<circle oryx:anchors="top left" id="_6790B840-3BA6-4CF5-807B-F9502DA19634frame23" style="opacity:1;fill:none;" stroke="#000000" cx="17.427" cy="17.426" r="3.714"/> 	</g> 	 	<g id="_6790B840-3BA6-4CF5-807B-F9502DA19634sendTask" display="none"> 		<path id="_6790B840-3BA6-4CF5-807B-F9502DA19634stframe24" oryx:anchors="left top" stroke="#FFFFFF" fill="black" stroke-width="1" d="M8,11 L8,21 L24,21 L24,11 L16,17z"/> 		<path id="_6790B840-3BA6-4CF5-807B-F9502DA19634stframe25" oryx:anchors="left top" stroke="#FFFFFF" fill="black" stroke-width="1" d="M7,10 L16,17 L25 10z"/> 	</g> 	 	<g id="_6790B840-3BA6-4CF5-807B-F9502DA19634receiveTask" display="none"> 		<path id="_6790B840-3BA6-4CF5-807B-F9502DA19634frame26" oryx:anchors="left top" stroke="#000000" fill="none" stroke-width="1" d="M8,11 L8,21 L24,21 L24,11z M8,11 L16,17 L24,11"/> 	</g> 	 	<g id="_6790B840-3BA6-4CF5-807B-F9502DA19634none" display="inherit"/>  	<g id="_6790B840-3BA6-4CF5-807B-F9502DA19634sequential" display="none">         <path oryx:anchors="bottom" fill="none" stroke="#000000" stroke-width="2" d="M46,76h10M46,72h10 M46,68h10" id="_6790B840-3BA6-4CF5-807B-F9502DA19634__6790B840-3BA6-4CF5-807B-F9502DA19634_20"/>     </g>   </g></g><g class="children" style="overflow:hidden"/><g class="edge"/></g><g class="controls"><g class="dockers"/><g class="magnets" transform="translate(570, 180)"><g pointer-events="all" display="none" transform="translate(-7, 12)"><circle cx="8" cy="8" r="4" stroke="none" fill="red" fill-opacity="0.3"/></g><g pointer-events="all" display="none" transform="translate(-7, 32)"><circle cx="8" cy="8" r="4" stroke="none" fill="red" fill-opacity="0.3"/></g><g pointer-events="all" display="none" transform="translate(-7, 52)"><circle cx="8" cy="8" r="4" stroke="none" fill="red" fill-opacity="0.3"/></g><g pointer-events="all" display="none" transform="translate(17, 71)"><circle cx="8" cy="8" r="4" stroke="none" fill="red" fill-opacity="0.3"/></g><g pointer-events="all" display="none" transform="translate(42, 71)"><circle cx="8" cy="8" r="4" stroke="none" fill="red" fill-opacity="0.3"/></g><g pointer-events="all" display="none" transform="translate(67, 71)"><circle cx="8" cy="8" r="4" stroke="none" fill="red" fill-opacity="0.3"/></g><g pointer-events="all" display="none" transform="translate(91, 12)"><circle cx="8" cy="8" r="4" stroke="none" fill="red" fill-opacity="0.3"/></g><g pointer-events="all" display="none" transform="translate(91, 32)"><circle cx="8" cy="8" r="4" stroke="none" fill="red" fill-opacity="0.3"/></g><g pointer-events="all" display="none" transform="translate(91, 52)"><circle cx="8" cy="8" r="4" stroke="none" fill="red" fill-opacity="0.3"/></g><g pointer-events="all" display="none" transform="translate(17, -7)"><circle cx="8" cy="8" r="4" stroke="none" fill="red" fill-opacity="0.3"/></g><g pointer-events="all" display="none" transform="translate(42, -7)"><circle cx="8" cy="8" r="4" stroke="none" fill="red" fill-opacity="0.3"/></g><g pointer-events="all" display="none" transform="translate(67, -7)"><circle cx="8" cy="8" r="4" stroke="none" fill="red" fill-opacity="0.3"/></g><g pointer-events="all" display="none" transform="translate(42, 32)"><circle cx="8" cy="8" r="4" stroke="none" fill="red" fill-opacity="0.3"/></g></g></g></g><g id="_EE9F4BFF-0F55-4B69-B16B-EDF2FB74A48C" bpmn2nodeid="_42CE0737-15DC-4070-B42F-C1C2CC6B17F3"><g class="stencils" transform="translate(960, 206)"><g class="me"><g pointer-events="fill" id="_EE9F4BFF-0F55-4B69-B16B-EDF2FB74A48C">      <defs id="_EE9F4BFF-0F55-4B69-B16B-EDF2FB74A48C__EE9F4BFF-0F55-4B69-B16B-EDF2FB74A48C_5"> 		<radialGradient id="_EE9F4BFF-0F55-4B69-B16B-EDF2FB74A48Cbackground" cx="10%" cy="10%" r="100%" fx="10%" fy="10%"> 			<stop offset="0%" stop-color="#ffffff" stop-opacity="1" id="_EE9F4BFF-0F55-4B69-B16B-EDF2FB74A48C__EE9F4BFF-0F55-4B69-B16B-EDF2FB74A48C_6"/> 			<stop id="_EE9F4BFF-0F55-4B69-B16B-EDF2FB74A48Cfill_el" offset="100%" stop-color="#ff6347" stop-opacity="1"/> 		</radialGradient> 	</defs> 	     <circle id="_EE9F4BFF-0F55-4B69-B16B-EDF2FB74A48Cbg_frame" cx="14" cy="14" r="14" stroke="#000000" fill="url(#_EE9F4BFF-0F55-4B69-B16B-EDF2FB74A48Cbackground) white" stroke-width="3"/> 	<text font-size="11" id="_EE9F4BFF-0F55-4B69-B16B-EDF2FB74A48Ctext_name" x="14" y="30" oryx:align="top center" stroke="black" stroke-width="0pt" letter-spacing="-0.01px" fill="#000000" text-anchor="middle" transform="rotate(0 14 30)" visibility="inherit" oryx:fontSize="11"/>   </g></g><g class="children" style="overflow:hidden"/><g class="edge"/></g><g class="controls"><g class="dockers"/><g class="magnets" transform="translate(960, 206)"><g pointer-events="all" display="none" transform="translate(6, 6)"><circle cx="8" cy="8" r="4" stroke="none" fill="red" fill-opacity="0.3"/></g></g></g></g><g id="_B2DD201E-9F18-4B9C-9A5C-72734B07578F" bpmn2nodeid="_893CC501-F481-4537-97E6-EC6AE2994AF2"><g class="stencils" transform="translate(780, 180)"><g class="me"><g pointer-events="fill" oryx:minimumSize="50 40" id="_B2DD201E-9F18-4B9C-9A5C-72734B07578F">   	<defs id="_B2DD201E-9F18-4B9C-9A5C-72734B07578F__B2DD201E-9F18-4B9C-9A5C-72734B07578F_17"> 		<radialGradient id="_B2DD201E-9F18-4B9C-9A5C-72734B07578Fbackground" cx="10%" cy="10%" r="100%" fx="10%" fy="10%"> 			<stop offset="0%" stop-color="#ffffff" stop-opacity="1" id="_B2DD201E-9F18-4B9C-9A5C-72734B07578F__B2DD201E-9F18-4B9C-9A5C-72734B07578F_18"/> 			<stop id="_B2DD201E-9F18-4B9C-9A5C-72734B07578Ffill_el" offset="100%" stop-color="#fafad2" stop-opacity="1"/> 		</radialGradient> 		<radialGradient id="_B2DD201E-9F18-4B9C-9A5C-72734B07578Fborderbackground" cx="10%" cy="10%" r="100%" fx="10%" fy="10%"> 			<stop offset="0%" stop-color="#ffffff" stop-opacity="1" id="_B2DD201E-9F18-4B9C-9A5C-72734B07578F__B2DD201E-9F18-4B9C-9A5C-72734B07578F_19"/> 			<stop id="_B2DD201E-9F18-4B9C-9A5C-72734B07578Ffill_border" offset="100%" stop-color="#000000" stop-opacity="1" stroke="#000000"/> 		</radialGradient> 	</defs> 	 	<rect id="_B2DD201E-9F18-4B9C-9A5C-72734B07578Ftext_frame" oryx:anchors="bottom top right left" x="1" y="1" width="94" height="79" rx="10" ry="10" stroke="none" stroke-width="0" fill="none"/> 	<rect id="_B2DD201E-9F18-4B9C-9A5C-72734B07578Fbg_frame" oryx:resize="vertical horizontal" x="0" y="0" width="100" height="80" rx="10" ry="10" stroke="#000000" stroke-width="1" fill="url(#_B2DD201E-9F18-4B9C-9A5C-72734B07578Fbackground) #ffffcc"/> 		<text font-size="12" id="_B2DD201E-9F18-4B9C-9A5C-72734B07578Ftext_name" x="50" y="40" oryx:align="middle center" oryx:fittoelem="text_frame" stroke="black" text-anchor="middle" stroke-width="0pt" letter-spacing="-0.01px" fill="#000000" transform="rotate(0 50 40)" visibility="inherit" oryx:fontSize="12"><tspan x="50" y="40" dy="5">mostrar Suma</tspan></text>     <g id="_B2DD201E-9F18-4B9C-9A5C-72734B07578FmanualTask" transform="scale(0.7,0.7) translate(8,8)" display="none">     	<path oryx:anchors="top left" id="_B2DD201E-9F18-4B9C-9A5C-72734B07578Fframe" style="opacity:1;fill:none;fill-opacity:1;stroke-width:1" d="M0.5,3.751l4.083-3.25c0,0,11.166,0.083,12.083,0.083s-2.417,2.917-1.5,2.917     s11.667,0,12.584,0c1.166,1.708-0.168,3.167-0.834,3.667s0.875,1.917-1,4.417c-0.75,0.25,0.75,1.875-1.333,3.333     c-1.167,0.583,0.583,1.542-1.25,2.833c-1.167,0-20.833,0.083-20.833,0.083l-2-1.333V3.751z" stroke="#000000"/> 		<path id="_B2DD201E-9F18-4B9C-9A5C-72734B07578Fframe2" oryx:anchors="top left" style="opacity:1;fill:none;stroke-width:2" d="M 13.5 7 L 27 7" stroke="#000000"/> 		<path id="_B2DD201E-9F18-4B9C-9A5C-72734B07578Fframe3" oryx:anchors="top left" style="opacity:1;fill:none;stroke-width:2" d="M 13.5 11 L 26 11" stroke="#000000"/> 		<path id="_B2DD201E-9F18-4B9C-9A5C-72734B07578Fframe4" oryx:anchors="top left" style="opacity:1;fill:none;stroke-width:1.5" d="M 14 14.5 L 25 14.5" stroke="#000000"/> 		<path id="_B2DD201E-9F18-4B9C-9A5C-72734B07578Fframe5" oryx:anchors="top left" style="opacity:1;fill:none;stroke-width:1.5" d="M 8.2 3.1 L 15 3.1" stroke="#000000"/> 	</g> 	 	<g id="_B2DD201E-9F18-4B9C-9A5C-72734B07578FbusinessRuleTask" transform="scale(0.7,0.7) translate(8,8)" display="none"> 		<rect id="_B2DD201E-9F18-4B9C-9A5C-72734B07578Fframe6" oryx:anchors="top left" x="0" y="0" width="22" height="4" style="opacity:1;fill:#B3B1B3;fill-opacity:1;" stroke="#000000"/> 		<rect id="_B2DD201E-9F18-4B9C-9A5C-72734B07578Fframe7" oryx:anchors="top left" x="0" y="4" style="opacity:1;fill:none;" width="22" height="12" stroke="#000000"/> 		<path id="_B2DD201E-9F18-4B9C-9A5C-72734B07578Fframe8" oryx:anchors="top left" style="opacity:1;fill:none;" d="M 0 10 L 22 10" stroke="#000000"/> 		<path id="_B2DD201E-9F18-4B9C-9A5C-72734B07578Fframe9" oryx:anchors="top left" style="opacity:1; fill:none;" d="M 7 4 L 7 16" stroke="#000000"/> 	</g> 	 	<g id="_B2DD201E-9F18-4B9C-9A5C-72734B07578FscriptTask" transform="scale(0.7,0.7) translate(8,8)" display="none"> 		<path oryx:anchors="top left" id="_B2DD201E-9F18-4B9C-9A5C-72734B07578Fframe10" style="opacity:1;fill:none;" stroke="#000000" d="M6.402,0.5h14.5c0,0-5.833,2.833-5.833,5.583s4.417,6,4.417,9.167    s-4.167,5.083-4.167,5.083H0.235c0,0,5-2.667,5-5s-4.583-6.75-4.583-9.25S6.402,0.5,6.402,0.5z"/> 		<path oryx:anchors="top left" id="_B2DD201E-9F18-4B9C-9A5C-72734B07578Fframe11" style="opacity:1;fill:none;stroke-width:1.5" d="M 3.5 4.5 L 13.5 4.5" stroke="#000000"/> 		<path oryx:anchors="top left" id="_B2DD201E-9F18-4B9C-9A5C-72734B07578Fframe12" style="opacity:1;fill:none;stroke-width:1.5" d="M 3.8 8.5 L 13.8 8.5" stroke="#000000"/> 		<path oryx:anchors="top left" id="_B2DD201E-9F18-4B9C-9A5C-72734B07578Fframe13" style="opacity:1;fill:none;stroke-width:1.5" d="M 6.3 12.5 L 16.3 12.5" stroke="#000000"/> 		<path oryx:anchors="top left" id="_B2DD201E-9F18-4B9C-9A5C-72734B07578Fframe14" style="opacity:1;fill:none;stroke-width:1.5" d="M 6.5 16.5 L 16.5 16.5" stroke="#000000"/> 	</g> 	 	<g id="_B2DD201E-9F18-4B9C-9A5C-72734B07578FuserTask" transform="scale(0.7,0.7) translate(8,8)" display="inherit"> 		<path id="_B2DD201E-9F18-4B9C-9A5C-72734B07578Fframe15" oryx:anchors="top left" style="opacity:1;fill:#F4F6F7" stroke="#000000" d="M0.585,24.167h24.083v-7.833c0,0-2.333-3.917-7.083-5.167h-9.25    c-4.417,1.333-7.833,5.75-7.833,5.75L0.585,24.167z"/> 		<path id="_B2DD201E-9F18-4B9C-9A5C-72734B07578Fframe16" oryx:anchors="top left" style="opacity:1;fill:none" d="M 6 20 L 6 24" stroke="#000000"/> 		<path id="_B2DD201E-9F18-4B9C-9A5C-72734B07578Fframe17" oryx:anchors="top left" style="opacity:1;fill:none" d="M 20 20 L 20 24" stroke="#000000"/> 		<circle id="_B2DD201E-9F18-4B9C-9A5C-72734B07578Fframe18" oryx:anchors="top left" fill="black" cx="13.002" cy="5.916" r="5.417" stroke="#000000"/> 		<path id="_B2DD201E-9F18-4B9C-9A5C-72734B07578Fframe19" oryx:anchors="top left" style="opacity:1;fill:#F0EFF0;" stroke="#000000" d="M8.043,7.083c0,0,2.814-2.426,5.376-1.807s4.624-0.693,4.624-0.693    c0.25,1.688,0.042,3.75-1.458,5.584c0,0,1.083,0.75,1.083,1.5s0.125,1.875-1,3s-5.5,1.25-6.75,0S8.668,12.834,8.668,12    s0.583-1.25,1.25-1.917C8.835,9.5,7.419,7.708,8.043,7.083z"/> 	</g> 	 	<g id="_B2DD201E-9F18-4B9C-9A5C-72734B07578FserviceTask" transform="scale(0.7,0.7) translate(8,8)" display="none"> 		<polygon oryx:anchors="top left" id="_B2DD201E-9F18-4B9C-9A5C-72734B07578Fframe20" style="opacity:1;fill:#ffffff" stroke="#000000" points="15.392,5.064 17.954,2.502 20.347,4.895 17.786,7.455     18.729,9.732 22.353,9.732 22.353,13.115 18.731,13.115 17.788,15.392 20.351,17.955 17.958,20.347 15.397,17.786 13.12,18.729     13.12,22.353 9.737,22.353 9.737,18.731 7.46,17.788 4.897,20.35 2.506,17.958 5.066,15.397 4.124,13.12 0.5,13.12 0.5,9.737     4.121,9.737 5.065,7.461 2.503,4.898 4.895,2.506 7.455,5.066 9.732,4.125 9.732,0.5 13.116,0.5 13.116,4.121 "/> 		<circle oryx:anchors="top left" id="_B2DD201E-9F18-4B9C-9A5C-72734B07578Fframe21" style="opacity:1;fill:none" stroke="#000000" cx="11.427" cy="11.426" r="3.714"/> 		<polygon oryx:anchors="top left" id="_B2DD201E-9F18-4B9C-9A5C-72734B07578Fframe22" style="opacity:1;fill:#ffffff" stroke="#000000" points="21.392,11.064 23.954,8.502 26.347,10.895 23.786,13.455     24.729,15.732 28.353,15.732 28.353,19.115 24.731,19.115 23.788,21.392 26.351,23.955 23.958,26.347 21.397,23.786 19.12,24.729     19.12,28.353 15.737,28.353 15.737,24.731 13.46,23.788 10.897,26.35 8.506,23.958 11.066,21.397 10.124,19.12 6.5,19.12     6.5,15.737 10.121,15.737 11.065,13.461 8.503,10.898 10.895,8.506 13.455,11.066 15.732,10.125 15.732,6.5 19.116,6.5     19.116,10.121 "/> 		<circle oryx:anchors="top left" id="_B2DD201E-9F18-4B9C-9A5C-72734B07578Fframe23" style="opacity:1;fill:none;" stroke="#000000" cx="17.427" cy="17.426" r="3.714"/> 	</g> 	 	<g id="_B2DD201E-9F18-4B9C-9A5C-72734B07578FsendTask" display="none"> 		<path id="_B2DD201E-9F18-4B9C-9A5C-72734B07578Fstframe24" oryx:anchors="left top" stroke="#FFFFFF" fill="black" stroke-width="1" d="M8,11 L8,21 L24,21 L24,11 L16,17z"/> 		<path id="_B2DD201E-9F18-4B9C-9A5C-72734B07578Fstframe25" oryx:anchors="left top" stroke="#FFFFFF" fill="black" stroke-width="1" d="M7,10 L16,17 L25 10z"/> 	</g> 	 	<g id="_B2DD201E-9F18-4B9C-9A5C-72734B07578FreceiveTask" display="none"> 		<path id="_B2DD201E-9F18-4B9C-9A5C-72734B07578Fframe26" oryx:anchors="left top" stroke="#000000" fill="none" stroke-width="1" d="M8,11 L8,21 L24,21 L24,11z M8,11 L16,17 L24,11"/> 	</g> 	 	<g id="_B2DD201E-9F18-4B9C-9A5C-72734B07578Fnone" display="inherit"/>  	<g id="_B2DD201E-9F18-4B9C-9A5C-72734B07578Fsequential" display="none">         <path oryx:anchors="bottom" fill="none" stroke="#000000" stroke-width="2" d="M46,76h10M46,72h10 M46,68h10" id="_B2DD201E-9F18-4B9C-9A5C-72734B07578F__B2DD201E-9F18-4B9C-9A5C-72734B07578F_20"/>     </g>   </g></g><g class="children" style="overflow:hidden"/><g class="edge"/></g><g class="controls"><g class="dockers"/><g class="magnets" transform="translate(780, 180)"><g pointer-events="all" display="none" transform="translate(-7, 12)"><circle cx="8" cy="8" r="4" stroke="none" fill="red" fill-opacity="0.3"/></g><g pointer-events="all" display="none" transform="translate(-7, 32)"><circle cx="8" cy="8" r="4" stroke="none" fill="red" fill-opacity="0.3"/></g><g pointer-events="all" display="none" transform="translate(-7, 52)"><circle cx="8" cy="8" r="4" stroke="none" fill="red" fill-opacity="0.3"/></g><g pointer-events="all" display="none" transform="translate(17, 71)"><circle cx="8" cy="8" r="4" stroke="none" fill="red" fill-opacity="0.3"/></g><g pointer-events="all" display="none" transform="translate(42, 71)"><circle cx="8" cy="8" r="4" stroke="none" fill="red" fill-opacity="0.3"/></g><g pointer-events="all" display="none" transform="translate(67, 71)"><circle cx="8" cy="8" r="4" stroke="none" fill="red" fill-opacity="0.3"/></g><g pointer-events="all" display="none" transform="translate(91, 12)"><circle cx="8" cy="8" r="4" stroke="none" fill="red" fill-opacity="0.3"/></g><g pointer-events="all" display="none" transform="translate(91, 32)"><circle cx="8" cy="8" r="4" stroke="none" fill="red" fill-opacity="0.3"/></g><g pointer-events="all" display="none" transform="translate(91, 52)"><circle cx="8" cy="8" r="4" stroke="none" fill="red" fill-opacity="0.3"/></g><g pointer-events="all" display="none" transform="translate(17, -7)"><circle cx="8" cy="8" r="4" stroke="none" fill="red" fill-opacity="0.3"/></g><g pointer-events="all" display="none" transform="translate(42, -7)"><circle cx="8" cy="8" r="4" stroke="none" fill="red" fill-opacity="0.3"/></g><g pointer-events="all" display="none" transform="translate(67, -7)"><circle cx="8" cy="8" r="4" stroke="none" fill="red" fill-opacity="0.3"/></g><g pointer-events="all" display="none" transform="translate(42, 32)"><circle cx="8" cy="8" r="4" stroke="none" fill="red" fill-opacity="0.3"/></g></g></g></g></g><g class="edge"><g id="_DF019EDA-D6ED-4335-ABEE-F4B359E9A659" bpmn2nodeid="_E34DC550-919C-4A62-B723-364AAD4B732D"><g class="stencils"><g class="me"><g pointer-events="painted" bpmn2nodeid="_F59FADF9-2C61-40D4-B654-872250BB2CC4"><path id="_DF019EDA-D6ED-4335-ABEE-F4B359E9A659_1" d="M270.609375 220L374.859375 220 " stroke="#000000" fill="none" stroke-width="2" stroke-linecap="round" stroke-linejoin="round" marker-start="url(#_DF019EDA-D6ED-4335-ABEE-F4B359E9A659start)" marker-end="url(#_DF019EDA-D6ED-4335-ABEE-F4B359E9A659end)"/></g><text id="_DF019EDA-D6ED-4335-ABEE-F4B359E9A659text_name" font-size="12" x="284.609375" y="206" oryx:edgePosition="startTop" stroke-width="0pt" letter-spacing="-0.01px" fill="#000000" text-anchor="start" transform="rotate(360 270.609375 220)" visibility="inherit" oryx:fontSize="12"/></g><g class="children" style="overflow:hidden"/><g class="edge"/></g><g class="controls"><g class="dockers"/><g class="magnets"/></g></g><g id="_E5D9BF79-C567-4060-A16D-68BAB078A904" bpmn2nodeid="_0431D2D4-F8F0-4561-BBF8-00A73290A4B5"><g class="stencils"><g class="me"><g pointer-events="painted" bpmn2nodeid="_08918189-16C1-4FEB-9200-964724A758FF"><path id="_E5D9BF79-C567-4060-A16D-68BAB078A904_1" d="M475.51171875 220L569.48828125 220 " stroke="#000000" fill="none" stroke-width="2" stroke-linecap="round" stroke-linejoin="round" marker-start="url(#_E5D9BF79-C567-4060-A16D-68BAB078A904start)" marker-end="url(#_E5D9BF79-C567-4060-A16D-68BAB078A904end)"/></g><text id="_E5D9BF79-C567-4060-A16D-68BAB078A904text_name" font-size="12" x="489.51171875" y="206" oryx:edgePosition="startTop" stroke-width="0pt" letter-spacing="-0.01px" fill="#000000" text-anchor="start" transform="rotate(360 475.51171875 220)" visibility="inherit" oryx:fontSize="12"/></g><g class="children" style="overflow:hidden"/><g class="edge"/></g><g class="controls"><g class="dockers"/><g class="magnets"/></g></g><g id="_71B141C0-B9E1-49A6-B207-281E0F7E0C06" bpmn2nodeid="_A964292C-29F9-4595-8D48-F2509F40386B"><g class="stencils"><g class="me"><g pointer-events="painted" bpmn2nodeid="_65BB9E37-1CA7-4AB5-A9FC-AC3ADD84A6D7"><path id="_71B141C0-B9E1-49A6-B207-281E0F7E0C06_1" d="M670.21875 220L779.78125 220 " stroke="#000000" fill="none" stroke-width="2" stroke-linecap="round" stroke-linejoin="round" marker-start="url(#_71B141C0-B9E1-49A6-B207-281E0F7E0C06start)" marker-end="url(#_71B141C0-B9E1-49A6-B207-281E0F7E0C06end)"/></g><text id="_71B141C0-B9E1-49A6-B207-281E0F7E0C06text_name" font-size="12" x="684.21875" y="206" oryx:edgePosition="startTop" stroke-width="0pt" letter-spacing="-0.01px" fill="#000000" text-anchor="start" transform="rotate(360 670.21875 220)" visibility="inherit" oryx:fontSize="12"/></g><g class="children" style="overflow:hidden"/><g class="edge"/></g><g class="controls"><g class="dockers"/><g class="magnets"/></g></g><g id="_44722205-14EB-4AB2-B64F-9534EA60C34B" bpmn2nodeid="_7B6ED3B9-1DB1-4EC2-89AE-8BA2B5BE642D"><g class="stencils"><g class="me"><g pointer-events="painted" bpmn2nodeid="_51F985C2-6881-42CC-B498-59C691809F7A"><path id="_44722205-14EB-4AB2-B64F-9534EA60C34B_1" d="M880.5 220L959.5 220 " stroke="#000000" fill="none" stroke-width="2" stroke-linecap="round" stroke-linejoin="round" marker-start="url(#_44722205-14EB-4AB2-B64F-9534EA60C34Bstart)" marker-end="url(#_44722205-14EB-4AB2-B64F-9534EA60C34Bend)"/></g><text id="_44722205-14EB-4AB2-B64F-9534EA60C34Btext_name" font-size="12" x="894.5" y="206" oryx:edgePosition="startTop" stroke-width="0pt" letter-spacing="-0.01px" fill="#000000" text-anchor="start" transform="rotate(360 880.5 220)" visibility="inherit" oryx:fontSize="12"/></g><g class="children" style="overflow:hidden"/><g class="edge"/></g><g class="controls"><g class="dockers"/><g class="magnets"/></g></g></g><text id="_F02D0916-0DD8-460C-B162-C8C850FD0EF9" style="stroke-width:1;fill:rgb(177,194,214);font-family:arial;font-weight:bold" font-size="12" onclick="ORYX.Plugins.CanvasTitle.openTextualAnalysis()" onmouseover="ORYX.Plugins.CanvasTitle.addToolTip('_F02D0916-0DD8-460C-B162-C8C850FD0EF9')" transform="translate(10, 20)">suma v.1.0 (src.main.resources.suma)</text></g></g></svg>